<svg xmlns="http://www.w3.org/2000/svg" viewBox="0 0 128 128" role="img" aria-label="Amethystkristall">
<title>Amethystkristall</title>
<!-- Original code-native storybook item illustration. Value, quantity and rarity are rendered by the game UI. -->
<g stroke="#493b33" stroke-width="4" stroke-linecap="round" stroke-linejoin="round">
<path d="M35 22H93L119 53 64 111 9 53Z" fill="#ad65df" />
<polygon points="35,22 64,29 47,53 9,53" fill="#e4b5ff" />
<polygon points="64,29 93,22 119,53 82,53" fill="#c38bea" />
<polygon points="47,53 82,53 64,111" fill="#8f49bf" />
<polygon points="9,53 47,53 64,111" fill="#a15bd2" />
<polygon points="82,53 119,53 64,111" fill="#693496" />
<polygon points="35,22 93,22 64,29" fill="#f7e3ff" />
<polygon points="64,29 82,53 47,53" fill="#d6a2f6" />
<path d="M37 27 20 48H43" fill="none" stroke="#fff2ff" stroke-width="4"/>
<path d="M66 34 76 48" fill="none" stroke="#eed1ff" stroke-width="3"/>
</g>
</svg>
