<svg xmlns="http://www.w3.org/2000/svg" viewBox="0 0 128 128" role="img" aria-label="In der Nähe teleportieren">
<title>In der Nähe teleportieren</title>

<!-- Original code-native storybook item illustration. Values and rarity belong to the game UI. -->
<g stroke="#493b33" stroke-width="4" stroke-linecap="round" stroke-linejoin="round">
<g transform="translate(0 -1) scale(.85)">
<path d="M23 39 40 31 52 41 73 33 102 42V97L70 113 23 100Z" fill="#d4d1bc" />
<path d="M66 47 102 42V97L70 113Z" fill="#8d9e9e" />
<path d="M18 27H46V70H18ZM80 24H108V67H80Z" fill="#c9d2ce" />
<path d="M20 24 32 10 47 26 47 33H17Z" fill="#2a72c9" />
<path d="M80 24 94 7 110 25V33H78Z" fill="#438fe4" />
<path d="M32 11V29H46L47 26Z" fill="#24559c" stroke="none"/>
<path d="M94 8V30H108L110 25Z" fill="#24559c" stroke="none"/>
<path d="M43 44H74V94H43Z" fill="#e9e1d2" />
<path d="M39 46 59 25 79 46Z" fill="#2a72c9" />
<path d="M53 72Q63 60 69 75V100L53 105Z" fill="#70472f" />
<path d="M59 74V99" fill="none" stroke="#aa743f" stroke-width="3"/>
<path d="M25 43H33V56H25ZM88 41H96V54H88Z" fill="#40535e" stroke-width="2"/>
<path d="M24 77H32M34 89H41M76 63H82M91 79H97" fill="none" stroke="#a9b4ac" stroke-width="3"/>
</g>
<path d="M55 110C53 95 61 85 78 85H88V73L115 94 88 117V105H78C69 105 63 107 61 115Z" fill="#3bd9e0" />
<path d="M64 101C68 96 75 93 88 94H103" fill="none" stroke="#c3ffff" stroke-width="4"/>
<path d="M13 105C15 92 34 91 42 103 47 111 35 122 25 116 20 113 23 107 29 107" fill="none" stroke="#3bd9e0" stroke-width="7"/>
</g>
</svg>
