<svg xmlns="http://www.w3.org/2000/svg" viewBox="0 0 128 128" role="img"><title>advanced_food_production</title><rect x="3" y="3" width="122" height="122" rx="25" fill="#fff8e9" stroke="#3d241d" stroke-width="6"/><path d="M15 25Q64 8 113 25" fill="none" stroke="#b38bc3" stroke-width="9" opacity=".9"/><path d="M15 109Q64 121 113 109" fill="none" stroke="#d8a43d" stroke-width="7" opacity=".75"/><g fill="#d8a43d" stroke="#3d241d" stroke-width="5" stroke-linecap="round" stroke-linejoin="round"><path d="M63 105V43m0 18q-19-3-20-17 17-1 20 17Zm0 15q18-3 19-17-16-1-19 17Zm0 13q-18-2-19-15 16-1 19 15Z"/></g><path d="M103 47V28m-8 9 8-9 8 9" fill="none" stroke="#587a43" stroke-width="6"/><path d="m18 26 4 8 9 4-9 4-4 9-4-9-9-4 9-4Z" fill="#b38bc3" stroke="#3d241d" stroke-width="3"/></svg>