<svg xmlns="http://www.w3.org/2000/svg" viewBox="0 0 128 128" role="img"><title>cavalry_storage</title><rect x="3" y="3" width="122" height="122" rx="25" fill="#fff8e9" stroke="#3d241d" stroke-width="6"/><path d="M15 25Q64 8 113 25" fill="none" stroke="#f1dfb8" stroke-width="9" opacity=".9"/><path d="M15 109Q64 121 113 109" fill="none" stroke="#74405f" stroke-width="7" opacity=".75"/><g transform="translate(18 39) scale(0.7)"><g fill="#74405f" stroke="#3d241d" stroke-width="5" stroke-linecap="round" stroke-linejoin="round"><path d="M5 30Q8 9 27 7q22 1 28 23l-8 17H14Z"/><path d="M14 22 5 10l16 7M45 20 54 8l-2 18"/></g><circle cx="34" cy="28" r="3" fill="#3d241d"/></g><g fill="#c58a52" stroke="#3d241d" stroke-width="5" stroke-linecap="round" stroke-linejoin="round"><path d="M39 57h51v45H39Z"/><path d="m39 57 25-14 26 14-26 15Zm25 15v30M48 65l32 28M80 65 48 93" fill="none"/></g></svg>