<svg xmlns="http://www.w3.org/2000/svg" viewBox="0 0 128 128"><title>archer_def_against_cavalry</title><g transform="translate(20 35) scale(0.76)"><g fill="#587a43" stroke="#3d241d" stroke-width="5" stroke-linecap="round" stroke-linejoin="round"><path d="M4 28Q8 2 30 3q21 2 25 27L43 45H14Z"/><path d="M17 24q13-14 26 0v15H17Z" fill="#f2c49c"/></g><path d="M40 7q10 1 13 8" fill="none" stroke="#8eae64" stroke-width="5"/></g><g fill="#3977b8" stroke="#3d241d" stroke-width="5" stroke-linecap="round" stroke-linejoin="round"><path d="M64 45 91 55v18c0 18-12 28-27 36-15-8-27-18-27-36V55Z"/><path d="M64 53v45" fill="none"/></g><circle cx="103" cy="28" r="17" fill="#74405f" stroke="#3d241d" stroke-width="4"/><path d="m94 37 18-18m-13 0h13v13" fill="none" stroke="#fff8e9" stroke-width="4"/></svg>