<svg xmlns="http://www.w3.org/2000/svg" viewBox="0 0 128 128"><title>troops_storage</title><g transform="translate(5 3) scale(.72)"><g transform="translate(42 43) scale(0.72)"><g fill="#3977b8" stroke="#3d241d" stroke-width="5" stroke-linecap="round" stroke-linejoin="round"><path d="M7 31Q8 7 30 5q22 2 24 26l-8 16H15Z"/><path d="M17 28h27v10H17Z" fill="#dce6e9"/><path d="M30 5v-8l10 8"/></g></g><g transform="translate(13 55) scale(0.53)"><g fill="#3977b8" stroke="#3d241d" stroke-width="5" stroke-linecap="round" stroke-linejoin="round"><path d="M7 31Q8 7 30 5q22 2 24 26l-8 16H15Z"/><path d="M17 28h27v10H17Z" fill="#dce6e9"/><path d="M30 5v-8l10 8"/></g></g><g transform="translate(72 58) scale(0.5)"><g fill="#3977b8" stroke="#3d241d" stroke-width="5" stroke-linecap="round" stroke-linejoin="round"><path d="M7 31Q8 7 30 5q22 2 24 26l-8 16H15Z"/><path d="M17 28h27v10H17Z" fill="#dce6e9"/><path d="M30 5v-8l10 8"/></g></g></g><g transform="translate(43 42) scale(.58)"><g fill="#c58a52" stroke="#3d241d" stroke-width="5" stroke-linecap="round" stroke-linejoin="round"><path d="M39 57h51v45H39Z"/><path d="m39 57 25-14 26 14-26 15Zm25 15v30M48 65l32 28M80 65 48 93" fill="none"/></g></g></svg>