<svg xmlns="http://www.w3.org/2000/svg" viewBox="0 0 128 128"><defs><linearGradient id="unit" x2=".8" y2="1"><stop stop-color="#d6ff76"/><stop offset=".42" stop-color="#70c729"/><stop offset="1" stop-color="#205b22"/></linearGradient><linearGradient id="metal" x2=".7" y2="1"><stop stop-color="#f4fcff"/><stop offset=".45" stop-color="#a9cfe7"/><stop offset="1" stop-color="#527594"/></linearGradient><linearGradient id="gold" x2=".5" y2="1"><stop stop-color="#fff6a5"/><stop offset=".45" stop-color="#ffcc37"/><stop offset="1" stop-color="#e98a09"/></linearGradient><linearGradient id="heart" x2=".3" y2="1"><stop stop-color="#ffd8df"/><stop offset=".4" stop-color="#f54d74"/><stop offset="1" stop-color="#ae174a"/></linearGradient><linearGradient id="wood" x2=".5" y2="1"><stop stop-color="#e4b673"/><stop offset="1" stop-color="#985122"/></linearGradient><radialGradient id="aura"><stop stop-color="#70c729" stop-opacity=".55"/><stop offset="1" stop-color="#071324"/></radialGradient></defs><rect width="128" height="128" rx="5" fill="url(#aura)"/><g stroke="#0a1525" stroke-width="4.5" stroke-linecap="round" stroke-linejoin="round"><path d="M48 14h36v14l-8 10v14c38 20 32 66-15 67-42 0-55-43-15-66V37l-8-11Z" fill="#ddfaff"/><path d="M25 76h76c17 50-81 57-76 0Z" fill="#37c7b2"/><g transform="translate(30,60) scale(.55)"><path d="M64 111 18 65C-8 37 30 6 64 36c32-30 73 0 45 30Z" fill="url(#heart)"/><path d="M21 46c4-12 20-16 28-8" fill="none" stroke="#fff0f4" stroke-width="8"/></g><path d="M41 17h47v17H41Z" fill="url(#gold)"/></g><path d="m19 7 3 7 8 3-8 3-3 8-3-8-8-3 8-3Zm91 83 3 6 7 3-7 2-3 7-2-7-7-2 7-3Z" fill="#dbfaff" opacity=".7" stroke="none"/></svg>