<svg xmlns="http://www.w3.org/2000/svg" viewBox="0 0 128 128"><defs><linearGradient id="unit" x2=".8" y2="1"><stop stop-color="#a7f7ff"/><stop offset=".42" stop-color="#24bada"/><stop offset="1" stop-color="#09547b"/></linearGradient><linearGradient id="metal" x2=".7" y2="1"><stop stop-color="#f4fcff"/><stop offset=".45" stop-color="#a9cfe7"/><stop offset="1" stop-color="#527594"/></linearGradient><linearGradient id="gold" x2=".5" y2="1"><stop stop-color="#fff6a5"/><stop offset=".45" stop-color="#ffcc37"/><stop offset="1" stop-color="#e98a09"/></linearGradient><linearGradient id="heart" x2=".3" y2="1"><stop stop-color="#ffd8df"/><stop offset=".4" stop-color="#f54d74"/><stop offset="1" stop-color="#ae174a"/></linearGradient><linearGradient id="wood" x2=".5" y2="1"><stop stop-color="#e4b673"/><stop offset="1" stop-color="#985122"/></linearGradient><radialGradient id="aura"><stop stop-color="#24bada" stop-opacity=".55"/><stop offset="1" stop-color="#071324"/></radialGradient></defs><rect width="128" height="128" rx="5" fill="url(#aura)"/><g stroke="#0a1525" stroke-width="4.5" stroke-linecap="round" stroke-linejoin="round"><path d="M62 28C40 5 79-12 100 16L77 36Z" fill="#e64a50"/><g transform="translate(1,7) scale(.94)"><path d="M28 111V52C28 12 97 10 100 51v55l-27 13-2-37H57l-2 37Z" fill="url(#unit)"/><path d="m28 56 31 10-2 17-24-10m66-18L69 66l2 17 24-11" fill="#071525"/><path d="M64 23v38m-4 25 4 25 4-25" fill="none" stroke="#d9faff" stroke-width="5"/><path d="M20 119v-15l13-18 15 13v20m34 0V98l15-12 14 15v18" fill="url(#unit)"/></g><path d="m35 39 11-17 17 8 22-7 11 18-30 12Z" fill="url(#gold)"/><path d="M60 48v30m-13-16h28" stroke="#ffe579" stroke-width="7"/></g><path d="m19 7 3 7 8 3-8 3-3 8-3-8-8-3 8-3Zm91 83 3 6 7 3-7 2-3 7-2-7-7-2 7-3Z" fill="#dbfaff" opacity=".7" stroke="none"/></svg>