<svg xmlns="http://www.w3.org/2000/svg" viewBox="0 0 128 128"><title>Gold</title><g stroke="#493b33" stroke-width="3.5" stroke-linecap="round" stroke-linejoin="round"><path d="m14 74 7-21 46-5 14 18-4 19-48 8Z" fill="#c68b32"/><path d="m22 54 44-4 9 14-44 7-14-1Z" fill="#ffe290" stroke="none"/><path d="m31 74 45-7-2 16-44 7Z" fill="#edba52" stroke="none"/><path d="m59 86 7-22 35-7 15 20-3 17-36 10Z" fill="#c38c37"/><path d="m68 66 32-7 11 17-34 8-14-1Z" fill="#ffe49b" stroke="none"/><path d="m78 87 34-8-2 13-32 9Z" fill="#e8b34b" stroke="none"/><path d="m36 47 7-22 37-5 15 19-4 17-37 7Z" fill="#c18b32"/><path d="m45 27 33-5 11 15-35 7-14-1Z" fill="#ffe8a5" stroke="none"/><path d="m55 47 35-7-2 14-34 6Z" fill="#edbb52" stroke="none"/><path d="m47 30 22-3" stroke="#fff6df" stroke-width="4"/></g></svg>
