<svg xmlns="http://www.w3.org/2000/svg" viewBox="0 0 130 120"><ellipse cx="65" cy="105" rx="53" ry="10" fill="#29452d" opacity=".3"/><g stroke="#3d5339" stroke-width="2.5" stroke-linejoin="round"><path d="M29 98V29m28 65V20m45 76V35" stroke="#715634" stroke-width="9"/><path d="M7 75 29 42 50 75ZM13 55l16-34 16 34ZM33 69 57 33 80 69ZM40 44 57 8l18 36Zm43 36 19-37 20 37ZM88 59l14-34 15 34Z" fill="#416c42"/><path d="m11 73 18-25v24m7-6 21-29v30m30 11 15-28v26" fill="#649052" stroke="none"/><path d="m40 83 31-16 39 17-31 20Z" fill="#bb9d65"/><path d="M44 85v19l34 12V97m0 0 29-13v18l-29 14" fill="#866543" stroke="#5d4931"/><path d="m41 82 29-26 40 26-31 16Z" fill="#9c643c" stroke="#5d4931"/></g><g stroke="#684829" stroke-width="2"><path d="m12 95 34 8m-31-1 31 9m-26-3 26 11" stroke-width="10"/><ellipse cx="13" cy="95" rx="6" ry="5" fill="#d6b779"/><ellipse cx="15" cy="102" rx="6" ry="5" fill="#e1c183"/><ellipse cx="20" cy="109" rx="6" ry="5" fill="#ceb076"/></g><path d="m99 91 13-23" stroke="#544432" stroke-width="4"/><path d="m108 67 14 3-7 11-11-5Z" fill="#b8c2ba" stroke="#536258" stroke-width="2"/></svg>
